<svg width="28" height="29" viewBox="0 0 28 29" fill="none" xmlns="http://www.w3.org/2000/svg">
<g clip-path="url(#clip0_1471_152614)">
<path d="M6.30349 17.3904L5.35416 20.9343L1.8844 21.0077C0.847452 19.0844 0.259277 16.8839 0.259277 14.5455C0.259277 12.2842 0.809206 10.1518 1.78399 8.27423H1.78474L4.8738 8.84057L6.227 11.9111C5.94378 12.7368 5.78941 13.6231 5.78941 14.5455C5.78952 15.5465 5.97084 16.5055 6.30349 17.3904Z" fill="#FBBB00"/>
<path d="M27.2936 11.9981C27.4502 12.823 27.5319 13.6749 27.5319 14.5456C27.5319 15.5219 27.4292 16.4742 27.2337 17.3928C26.5699 20.5186 24.8354 23.2481 22.4325 25.1797L22.4318 25.179L18.5409 24.9804L17.9903 21.5428C19.5847 20.6078 20.8307 19.1445 21.487 17.3928H14.1953V11.9981H21.5934H27.2936Z" fill="#518EF8"/>
<path d="M22.432 25.1788L22.4327 25.1795C20.0958 27.0579 17.1273 28.1818 13.8958 28.1818C8.7027 28.1818 4.18774 25.2792 1.88452 21.0077L6.30361 17.3904C7.45519 20.4638 10.42 22.6516 13.8958 22.6516C15.3897 22.6516 16.7894 22.2477 17.9904 21.5427L22.432 25.1788Z" fill="#28B446"/>
<path d="M22.5999 4.04834L18.1823 7.66496C16.9393 6.88801 15.47 6.43918 13.8958 6.43918C10.3414 6.43918 7.32113 8.72738 6.22724 11.911L1.78493 8.27413H1.78418C4.05368 3.8985 8.62559 0.908997 13.8958 0.908997C17.2045 0.908997 20.2382 2.08758 22.5999 4.04834Z" fill="#F14336"/>
</g>
<defs>
<clipPath id="clip0_1471_152614">
<rect width="27.2727" height="27.2727" fill="white" transform="translate(0.259277 0.909088)"/>
</clipPath>
</defs>
</svg>
